<svg width="95" height="15" viewBox="0 0 95 15" fill="none" xmlns="http://www.w3.org/2000/svg">
<path fill-rule="evenodd" clip-rule="evenodd" d="M91.5432 0.598389H94.8382C94.4852 0.892583 94.2498 1.24562 94.2498 1.71633V13.1311C94.2498 13.6018 94.4852 13.9548 94.8382 14.249H91.5432C91.8962 13.9548 92.1316 13.6018 92.1316 13.1311V1.71633C92.1316 1.18678 91.8962 0.833744 91.5432 0.598389Z" fill="#333333"/>
<path fill-rule="evenodd" clip-rule="evenodd" d="M14.582 5.48282C14.0525 4.30604 13.4641 3.1881 12.4638 2.30552C11.4047 1.42294 10.0514 0.834547 8.6393 0.834547C4.93245 0.834547 3.28496 4.18836 3.28496 7.48334C3.28496 10.6606 4.87361 13.8968 8.46278 13.8968C9.93376 13.8968 11.3459 13.2496 12.2285 12.1316V9.54271C12.2285 8.83664 11.9931 8.36593 11.4636 7.95405H15.2881C14.8762 8.42477 14.6409 8.89548 14.6409 9.54271V12.1316C12.8757 13.7791 10.7575 14.7205 8.34511 14.7205C4.04987 14.7794 0.578369 11.6609 0.578369 7.30683C0.578369 3.01159 3.99103 0.0696411 8.16859 0.0696411C10.7575 0.0696411 12.8757 1.01106 14.582 2.95275V5.48282Z" fill="#333333"/>
<path fill-rule="evenodd" clip-rule="evenodd" d="M23.8787 0.598389H27.4678C26.9971 0.951422 26.8206 1.36329 26.8206 1.95168V10.3068C26.8206 12.6015 29.5272 13.7195 31.4689 13.7195C33.4106 13.7195 35.9406 12.6015 35.9406 10.3656V1.95168C35.9406 1.36329 35.823 1.01026 35.4111 0.598389H37.3528C36.9409 1.01026 36.8232 1.42213 36.8232 1.95168V10.3656C36.8232 13.3664 33.2929 14.5432 30.8217 14.5432C28.2916 14.5432 24.5847 13.4253 24.5847 10.3068V1.95168C24.5259 1.36329 24.2905 0.951422 23.8787 0.598389Z" fill="#333333"/>
<path fill-rule="evenodd" clip-rule="evenodd" d="M59.7114 5.54074C59.2407 4.36397 58.6523 3.30487 57.7109 2.42228C56.6518 1.48086 55.3573 0.89247 53.9452 0.89247C50.2384 0.89247 48.3555 4.12861 48.3555 7.42359C48.3555 10.7774 50.2972 13.9547 53.9452 13.9547C56.6518 13.9547 58.5935 12.0719 59.7114 9.77715V12.2484C58.0639 13.8959 55.8869 14.7785 53.4745 14.7785C49.0616 14.7785 45.7666 11.9542 45.7666 7.42359C45.8254 2.95183 49.0027 0.0687256 53.298 0.0687256C55.7104 0.0687256 58.0051 0.89247 59.7114 2.53996V5.54074Z" fill="#333333"/>
<path fill-rule="evenodd" clip-rule="evenodd" d="M82.7764 5.54099C82.3057 4.36421 81.7173 3.30511 80.7758 2.42252C79.7167 1.4811 78.4223 0.892713 77.0101 0.892713C73.3033 0.892713 71.4793 4.12885 71.4793 7.42383C71.4793 10.7776 73.421 13.955 77.069 13.955C79.7756 13.955 81.7173 12.0721 82.8352 9.77739V12.2486C81.1289 13.8961 79.0107 14.7787 76.5983 14.7787C72.1854 14.7787 68.8904 11.9544 68.8904 7.42383C68.8904 3.01091 72.0677 0.127808 76.3629 0.127808C78.7753 0.127808 81.07 0.951552 82.7764 2.59904V5.54099Z" fill="#333333"/>
</svg>
