<svg width="100" height="14" viewBox="0 0 100 14" fill="none" xmlns="http://www.w3.org/2000/svg">
<path fill-rule="evenodd" clip-rule="evenodd" d="M23.021 3.64856L23.4127 5.99851H23.1889C22.8532 4.54378 21.5663 3.92832 20.1116 3.92832C19.8878 3.92832 19.664 3.92832 19.3842 4.04022V8.0687H19.9437C21.1187 8.0687 21.7901 7.62109 21.7901 6.66992H22.0139V9.97104H21.8461C21.7342 9.24367 21.5104 8.34845 19.9997 8.34845H19.4402V12.0972C19.4402 12.7126 19.7199 13.0483 20.6152 13.0483V13.2722H16.6426V13.0483C17.5378 13.0483 17.8176 12.7126 17.8176 12.0972V4.82353C17.8176 4.26402 17.4819 3.87236 16.5867 3.87236V3.64856H23.021Z" fill="#333333"/>
<path fill-rule="evenodd" clip-rule="evenodd" d="M31.022 3.64856L31.4137 5.99851H31.1899C30.8542 4.54378 29.5673 3.92832 28.1126 3.92832C27.8888 3.92832 27.665 3.92832 27.3852 4.04022V8.0687H27.9447C29.1197 8.0687 29.7911 7.62109 29.7911 6.66992H30.0149V9.97104H29.8471C29.7351 9.24367 29.5113 8.34845 28.0007 8.34845H27.4412V12.0972C27.4412 12.7126 27.7209 13.0483 28.6161 13.0483V13.2722H24.6436V13.0483C25.5388 13.0483 25.8186 12.7126 25.8186 12.0972V4.82353C25.8186 4.26402 25.4829 3.87236 24.5876 3.87236V3.64856H31.022Z" fill="#333333"/>
<path fill-rule="evenodd" clip-rule="evenodd" d="M14.6843 3.64856V3.87236C14.0129 3.87236 13.6212 4.20807 13.6212 4.82353V12.0412C13.6212 12.7126 14.0688 12.9924 14.6843 12.9924V13.2162H10.9355V12.9924C11.607 12.9364 11.9986 12.6567 11.9986 12.0412V4.82353C11.9986 4.20807 11.607 3.87236 10.9355 3.87236V3.64856H14.6843Z" fill="#333333"/>
<path fill-rule="evenodd" clip-rule="evenodd" d="M9.81648 1.01886L10.2081 3.92832H10.0403C9.48077 2.41764 8.4177 1.41052 6.45941 1.41052V11.6496C6.45941 12.7686 7.07487 13.1043 7.74629 13.1043V13.3281H3.2702V13.1043C3.88566 13.1043 4.66898 12.7686 4.66898 11.6496V1.35457C2.65474 1.35457 1.70357 2.30574 0.976203 3.92832H0.80835L1.14406 1.01886H9.81648Z" fill="#333333"/>
<path fill-rule="evenodd" clip-rule="evenodd" d="M64.4806 10.1389C64.4806 11.6496 65.5437 12.7686 67.1103 12.7686C67.7817 12.7686 68.565 12.4329 69.1246 11.8174L65.9913 7.84488C65.208 8.01273 64.4806 8.852 64.4806 10.1389ZM68.7329 4.15211C68.7329 2.92118 68.1734 2.30572 67.1103 2.30572C66.0472 2.30572 65.4318 2.92118 65.4318 3.9283C65.4318 5.10328 66.9984 6.66991 66.9984 6.66991C68.2293 5.99849 68.7329 5.27113 68.7329 4.15211ZM67.2222 6.94966L69.9079 10.3067C69.9079 10.3067 70.1876 9.74722 70.2436 9.24366C70.2436 8.6282 69.9079 8.40439 69.4043 8.29249V8.12464H72.3138C72.3138 8.12464 72.3697 8.29249 72.3138 8.29249C71.7543 8.40439 71.3626 8.57224 70.9709 8.852C70.6352 9.24366 70.4674 9.57936 70.1317 10.4746L71.3626 11.9853C71.9221 12.6007 72.5935 12.9364 73.3768 12.9924V13.2162H70.1876V12.9924L69.2924 11.9293C68.565 12.6567 67.3341 13.3281 66.1591 13.3281C64.2568 13.3281 63.0259 12.265 63.0259 10.8103C63.0259 9.18771 64.5366 8.18059 65.7115 7.39727C65.7115 7.39727 64.4247 5.94254 64.4247 4.59972C64.4247 3.08904 65.5996 1.91406 67.1663 1.91406C68.565 1.91406 69.6841 2.92118 69.6841 4.15211C69.6841 5.66279 68.0615 6.27825 67.2222 6.94966Z" fill="#333333"/>
<path fill-rule="evenodd" clip-rule="evenodd" d="M86.5813 0.795044L86.6932 4.65567H86.4694C86.0777 2.47358 84.623 1.24265 82.8325 1.24265C80.6505 1.24265 79.1398 3.76045 79.1398 7.17347C79.1398 11.3698 80.8183 13.1043 83.1123 13.1043C85.5182 13.1043 86.4694 10.8662 86.6932 9.29961H86.917V10.9781C86.5253 11.7055 85.2944 13.3281 82.7766 13.3281C79.5874 13.3281 77.0696 10.6984 77.0696 7.17347C77.0696 3.98426 79.8671 1.01885 82.7766 1.01885C84.4551 1.01885 84.9027 1.74621 85.5741 1.74621C86.0777 1.74621 86.3015 1.41051 86.3015 0.795044H86.5813V0.795044Z" fill="#333333"/>
<path fill-rule="evenodd" clip-rule="evenodd" d="M98.2751 11.4817C98.7787 11.4817 99.1703 11.8733 99.1703 12.3769C99.1703 12.8805 98.7787 13.2162 98.2751 13.2162C97.7715 13.2162 97.3799 12.8805 97.3799 12.3769C97.3799 11.8733 97.7715 11.4817 98.2751 11.4817Z" fill="#333333"/>
<path fill-rule="evenodd" clip-rule="evenodd" d="M89.4908 8.29248C89.4908 11.2579 90.6658 13.1043 92.4562 13.1043C94.3026 13.1043 95.4776 11.4257 95.4776 8.29248C95.4776 5.43898 94.4705 3.87235 92.5122 3.81639C90.4979 3.76044 89.4908 5.66278 89.4908 8.29248ZM92.4562 3.59259C95.1978 3.59259 97.4918 5.66278 97.4918 8.46034C97.4918 11.146 95.3097 13.2721 92.5122 13.2721C89.7706 13.2721 87.4766 11.09 87.4766 8.46034C87.4766 5.83063 89.7146 3.59259 92.4562 3.59259Z" fill="#333333"/>
<path fill-rule="evenodd" clip-rule="evenodd" d="M34.7707 5.66276L36.3933 9.63529H33.1481L34.7707 5.66276ZM40.142 13.0483C39.8063 13.0483 39.5265 12.7126 39.3587 12.4888C39.2468 12.265 35.498 3.14496 35.498 3.14496L32.085 11.4817C31.6934 12.5447 31.1339 13.0483 30.4065 13.0483V13.2721H33.204V13.0483C32.6445 12.9924 32.2529 12.7126 32.2529 12.3209C32.2529 11.9852 33.1481 9.85909 33.1481 9.85909H36.5052C36.5052 9.85909 37.4563 11.8733 37.4563 12.3209C37.5123 12.6566 36.9528 13.0483 36.4492 13.0483V13.2721H40.142V13.0483Z" fill="#333333"/>
<path fill-rule="evenodd" clip-rule="evenodd" d="M41.6527 11.5936C41.6527 12.4888 41.0932 12.8805 40.4777 13.0483V13.2721H43.2753V13.0483C42.492 12.8805 42.0443 12.321 42.0443 11.5936V5.32709L48.5906 13.44V5.60685C48.5906 4.48783 49.2061 3.81641 49.9334 3.81641V3.64856H46.8002V3.81641C47.6954 4.09617 48.3109 4.59973 48.3109 5.6628V10.4746L42.8277 3.64856H40.2539V3.81641C41.3729 3.87236 41.6527 4.76758 41.6527 4.99139V11.5936Z" fill="#333333"/>
<path fill-rule="evenodd" clip-rule="evenodd" d="M50.269 3.87236C50.6607 3.87236 50.7726 3.87236 51.0524 4.43188C51.0524 4.43188 54.0178 9.18772 54.0178 9.24367V12.0972C54.0178 12.7126 53.4583 13.0483 52.6749 13.1043V13.2722H56.8153V13.1043C56.088 13.0483 55.5844 12.7126 55.5844 12.0972V8.74011C55.5844 8.74011 57.4867 5.32709 57.6546 4.99139C58.1022 4.26402 58.7177 3.81641 59.501 3.76046V3.64856H56.1439L56.1999 3.76046C57.2629 3.76046 57.5427 4.76758 57.151 5.38304L55.3606 8.62821L53.2344 4.87948C52.8987 4.31997 53.3464 3.76046 54.1297 3.76046V3.64856H50.269V3.87236Z" fill="#333333"/>
</svg>
