<svg width="21" height="20" viewBox="0 0 21 20" fill="none" xmlns="http://www.w3.org/2000/svg">
<path d="M6.49834 0.183716C3.41114 0.183716 0.899902 2.69728 0.899902 5.78528V13.7853C0.899902 16.8725 3.41346 19.3837 6.50146 19.3837H14.5015C17.5887 19.3837 20.0999 16.8702 20.0999 13.7822V5.78215C20.0999 2.69495 17.5863 0.183716 14.4983 0.183716H6.49834ZM16.0999 3.38372C16.5415 3.38372 16.8999 3.74212 16.8999 4.18372C16.8999 4.62532 16.5415 4.98372 16.0999 4.98372C15.6583 4.98372 15.2999 4.62532 15.2999 4.18372C15.2999 3.74212 15.6583 3.38372 16.0999 3.38372ZM10.4999 4.98372C13.1471 4.98372 15.2999 7.13652 15.2999 9.78372C15.2999 12.4309 13.1471 14.5837 10.4999 14.5837C7.8527 14.5837 5.6999 12.4309 5.6999 9.78372C5.6999 7.13652 7.8527 4.98372 10.4999 4.98372ZM10.4999 6.58372C9.65121 6.58372 8.83728 6.92086 8.23716 7.52097C7.63704 8.12109 7.2999 8.93502 7.2999 9.78372C7.2999 10.6324 7.63704 11.4463 8.23716 12.0465C8.83728 12.6466 9.65121 12.9837 10.4999 12.9837C11.3486 12.9837 12.1625 12.6466 12.7626 12.0465C13.3628 11.4463 13.6999 10.6324 13.6999 9.78372C13.6999 8.93502 13.3628 8.12109 12.7626 7.52097C12.1625 6.92086 11.3486 6.58372 10.4999 6.58372Z" fill="#333333"/>
</svg>
