<svg width="67" height="41" viewBox="0 0 67 41" fill="none" xmlns="http://www.w3.org/2000/svg">
<path d="M60.7298 1.64808C55.9781 1.64808 48.979 4.60181 41.5305 7.87661C40.5031 7.55555 39.4115 7.17028 38.3841 6.78501C27.0829 2.67546 15.3964 -1.5625 1.59087 1.58387L1.52666 1.64808L0.37085 4.60182L0.691908 4.40918C0.691908 4.40918 3.51722 2.80389 9.55311 2.61126C15.1395 2.48283 24.707 3.51022 38.641 9.16084C35.0451 10.7661 31.4493 12.3714 27.9818 13.6556C27.4681 13.3988 27.0187 13.142 26.505 12.8209C21.368 9.99559 16.8732 7.55555 13.0205 7.55555C10.2594 7.55555 8.01203 9.80295 8.01203 12.4998C8.01203 15.2609 10.2594 17.5083 13.0205 17.5083C17.3869 17.5083 22.5881 16.0315 27.9818 13.9767C30.9356 15.582 34.0177 17.1873 37.3567 18.5357C36.9715 18.7926 36.5862 18.9852 36.2009 19.1778C34.2746 20.3337 32.284 21.4895 30.2935 22.4526C26.7618 20.5263 23.487 18.921 20.6617 18.921C18.8638 18.921 17.3869 20.3979 17.3869 22.1316C17.3869 23.9295 18.8638 25.4064 20.6617 25.4064C23.9365 25.4064 27.1471 24.2506 30.2935 22.7095C30.8071 22.9663 31.7703 23.5442 31.7703 23.5442C33.5682 24.5716 35.4304 25.5348 37.2925 26.4338C36.3293 27.0117 35.3662 27.6538 34.4672 28.3601C33.4398 29.0022 32.4767 29.7085 31.5135 30.2865C29.1376 29.3233 26.826 28.7454 25.5418 28.7454C24.386 28.7454 23.4228 29.7085 23.4228 30.8644C23.4228 32.0202 24.386 32.9833 25.5418 32.9833C27.3397 32.9833 29.3945 31.956 31.5777 30.5433C32.5409 30.9928 33.5682 31.4423 34.5956 32.0202C36.9072 33.3044 40.8242 36.0013 40.8242 39.5329V39.6614L42.8789 40.0466L42.9431 39.9182C42.9431 39.854 43.2 38.2487 42.1084 36.1939C41.081 34.2676 38.7694 31.5707 33.183 29.5159C33.6325 29.1949 34.1462 28.8738 34.5956 28.5527C35.5588 27.8464 36.5862 27.2043 37.5494 26.5622C40.1178 27.718 42.6863 28.5527 45.0621 28.5527C46.539 28.5527 47.6948 27.3327 47.6948 25.9201C47.6948 24.5074 46.539 23.2874 45.0621 23.2874C42.7505 23.2874 40.1178 24.6358 37.5494 26.2411C35.6872 25.4064 33.7609 24.3148 31.8987 23.2874C31.8987 23.2874 30.9998 22.8379 30.5503 22.5811C32.5409 21.6179 34.4672 20.5263 36.3293 19.4347C36.7788 19.1778 37.2283 18.921 37.6136 18.6642C41.7873 20.3337 46.2821 21.4895 51.1622 21.4895C53.4096 21.4895 55.2076 19.6915 55.2076 17.4441C55.2076 15.2609 53.4096 13.463 51.1622 13.463C46.6674 13.463 42.0442 15.8388 37.6136 18.4073C34.3388 17.0589 31.1924 15.4536 28.3029 13.8483C32.0914 12.3714 36.0083 10.6377 39.861 8.90399C40.3747 8.64715 40.9526 8.45451 41.5305 8.19766C48.0801 10.5093 54.3728 12.4998 60.7298 12.4998C64.7109 12.4998 66.8941 10.8303 66.8941 7.81239C66.8941 4.40918 64.133 1.64808 60.7298 1.64808ZM13.0205 17.2515C10.3879 17.2515 8.26888 15.1325 8.26888 12.4998C8.26888 9.93138 10.3879 7.81239 13.0205 7.81239C16.809 7.81239 21.2396 10.2524 26.3765 13.0777C26.826 13.3346 27.2113 13.5272 27.6608 13.7841C22.3954 15.8388 17.3227 17.2515 13.0205 17.2515ZM20.6617 25.1495C18.9922 25.1495 17.6438 23.8011 17.6438 22.1316C17.6438 20.5263 18.9922 19.1778 20.6617 19.1778C23.3586 19.1778 26.5692 20.7189 30.0366 22.5811C26.9545 24.0579 23.8081 25.1495 20.6617 25.1495ZM25.5418 32.7265C24.5144 32.7265 23.6797 31.8917 23.6797 30.8644C23.6797 29.837 24.5144 29.0022 25.5418 29.0022C26.7618 29.0022 28.945 29.5159 31.2566 30.4791C29.1376 31.7633 27.2113 32.7265 25.5418 32.7265ZM41.8515 36.2581C42.7505 37.9918 42.7505 39.3403 42.6863 39.7898L41.081 39.4687C41.0168 35.4876 36.2651 32.2128 31.8345 30.4149C32.2198 30.158 32.5409 29.9012 32.9261 29.7085C38.5125 31.6991 40.8884 34.396 41.8515 36.2581ZM45.0621 23.5442C46.3464 23.5442 47.438 24.6358 47.438 25.9201C47.438 27.2043 46.3464 28.2959 45.0621 28.2959C42.7505 28.2959 40.3105 27.4611 37.8704 26.3696C40.3747 24.8285 42.8147 23.5442 45.0621 23.5442ZM51.1622 13.7199C53.2812 13.7199 54.9507 15.3894 54.9507 17.4441C54.9507 19.4989 53.2812 21.2326 51.1622 21.2326C46.4106 21.2326 42.0442 20.0768 37.9346 18.5357C42.4294 15.9031 46.7316 13.7199 51.1622 13.7199ZM38.962 9.03242C25.7344 3.63864 16.4237 2.35441 10.7089 2.35441C10.2594 2.35441 9.87417 2.35441 9.55311 2.35441C4.48039 2.54705 1.71929 3.63864 0.884542 4.02391L1.71929 1.84072C15.3964 -1.30565 27.0829 2.93231 38.3199 7.04185C39.2831 7.36291 40.2463 7.68397 41.1452 8.06924C40.3747 8.3903 38.962 9.03242 38.962 9.03242ZM60.7298 12.243C54.5012 12.243 48.2727 10.3166 41.8515 8.00503C49.2359 4.79445 56.0423 1.90493 60.7298 1.90493C64.0045 1.90493 66.6372 4.5376 66.6372 7.81239C66.6372 11.4725 63.4266 12.243 60.7298 12.243Z" fill="#333333"/>
</svg>
