<svg width="21" height="18" viewBox="0 0 21 18" fill="none" xmlns="http://www.w3.org/2000/svg">
<path d="M20.8999 2.33332C20.1343 2.67332 19.3119 2.90212 18.4487 3.00532C19.3303 2.47732 20.0063 1.64132 20.3247 0.64452C19.5007 1.13332 18.5871 1.48852 17.6143 1.68052C16.8359 0.85092 15.7271 0.33252 14.4999 0.33252C12.1431 0.33252 10.2327 2.24372 10.2327 4.59972C10.2327 4.93412 10.2711 5.26052 10.3431 5.57172C6.79672 5.39412 3.65272 3.69492 1.54712 1.11252C1.18072 1.74292 0.970321 2.47572 0.970321 3.25892C0.970321 4.73892 1.72312 6.04532 2.86792 6.81012C2.16872 6.78772 1.51032 6.59572 0.935121 6.27652C0.935121 6.29492 0.935121 6.31172 0.935121 6.33012C0.935121 8.39812 2.40552 10.1229 4.35832 10.5141C4.00072 10.6117 3.62312 10.6637 3.23352 10.6637C2.95912 10.6637 2.69112 10.6365 2.43112 10.5877C2.97432 12.2829 4.55032 13.5173 6.41752 13.5517C4.95752 14.6965 3.11752 15.3789 1.11752 15.3789C0.773521 15.3789 0.433521 15.3589 0.0991211 15.3189C1.98792 16.5293 4.23032 17.2357 6.64072 17.2357C14.4903 17.2357 18.7815 10.7333 18.7815 5.09412C18.7815 4.90932 18.7775 4.72532 18.7695 4.54212C19.6039 3.93972 20.3279 3.18852 20.8999 2.33332Z" fill="#333333"/>
</svg>
