<svg width="21" height="19" viewBox="0 0 21 19" fill="none" xmlns="http://www.w3.org/2000/svg">
<path d="M10.5001 0.983643C7.1513 0.983643 2.80479 1.82271 2.80479 1.82271L2.79385 1.83521C1.26863 2.07913 0.100098 3.38974 0.100098 4.98364V9.78364V9.78521V14.5836V14.5852C0.101586 15.3464 0.374394 16.0822 0.869536 16.6604C1.36468 17.2386 2.04972 17.6213 2.80166 17.7399L2.80479 17.7446C2.80479 17.7446 7.1513 18.5852 10.5001 18.5852C13.8489 18.5852 18.1954 17.7446 18.1954 17.7446L18.197 17.743C18.9497 17.6247 19.6356 17.2417 20.1311 16.6628C20.6266 16.0839 20.8993 15.3472 20.9001 14.5852V14.5836V9.78521V9.78364V4.98364C20.899 4.22215 20.6263 3.48601 20.1312 2.90749C19.636 2.32897 18.9507 1.946 18.1985 1.82739L18.1954 1.82271C18.1954 1.82271 13.8489 0.983643 10.5001 0.983643ZM8.1001 6.10239L14.5001 9.78364L8.1001 13.4649V6.10239Z" fill="#333333"/>
</svg>
